<svg width="28" height="28" viewBox="0 0 28 28" fill="none" xmlns="http://www.w3.org/2000/svg">
<g clip-path="url(#clip0_1729_30011)">
<path d="M13.9999 15.6667V17.3334C12.6738 17.3334 11.4021 17.8602 10.4644 18.7978C9.5267 19.7355 8.99992 21.0073 8.99992 22.3334H7.33325C7.33325 20.5653 8.03563 18.8696 9.28587 17.6193C10.5361 16.3691 12.2318 15.6667 13.9999 15.6667ZM13.9999 14.8334C11.2374 14.8334 8.99992 12.5959 8.99992 9.83337C8.99992 7.07087 11.2374 4.83337 13.9999 4.83337C16.7624 4.83337 18.9999 7.07087 18.9999 9.83337C18.9999 12.5959 16.7624 14.8334 13.9999 14.8334ZM13.9999 13.1667C15.8416 13.1667 17.3333 11.675 17.3333 9.83337C17.3333 7.99171 15.8416 6.50004 13.9999 6.50004C12.1583 6.50004 10.6666 7.99171 10.6666 9.83337C10.6666 11.675 12.1583 13.1667 13.9999 13.1667Z" fill="#7A7B85"/>
<path d="M-9.06689 -31.5889C-11.7839 -20.0745 -13.2205 -8.06446 -13.2205 4.27888C-13.2205 51.0933 7.45613 93.0722 40.1783 121.59C20.4384 133.521 -2.69945 140.388 -27.4472 140.388H-115.659C-187.951 140.388 -246.548 81.7855 -246.548 9.49887C-246.548 1.86865 -242.551 -5.13667 -235.541 -8.1489C-214.426 -17.2158 -162.121 -34.6067 -71.5526 -34.6067C-48.2237 -34.6067 -27.4337 -33.4521 -9.06587 -31.5858L-9.06689 -31.5889Z" fill="#7A7B85"/>
<path fill-rule="evenodd" clip-rule="evenodd" d="M23.1667 19.4166C23.1667 21.4876 21.4877 23.1666 19.4167 23.1666C17.3457 23.1666 15.6667 21.4876 15.6667 19.4166C15.6667 17.3456 17.3457 15.6666 19.4167 15.6666C21.4877 15.6666 23.1667 17.3456 23.1667 19.4166ZM20.5759 19.8854H21.8729C21.6822 20.8901 20.8902 21.6821 19.8855 21.8728V20.5758C20.1988 20.449 20.4491 20.1987 20.5759 19.8854ZM20.5759 18.9479H21.8729C21.6535 17.7912 20.6373 16.9166 19.4167 16.9166C18.1962 16.9166 17.18 17.7912 16.9606 18.9479H18.2576C18.4431 18.4897 18.8922 18.1666 19.4167 18.1666C19.9413 18.1666 20.3904 18.4897 20.5759 18.9479ZM18.2576 19.8854H16.9606C17.1513 20.8901 17.9433 21.6821 18.948 21.8728V20.5758C18.6347 20.449 18.3844 20.1987 18.2576 19.8854Z" fill="#7A7B85"/>
</g>
<defs>
<clipPath id="clip0_1729_30011">
<rect width="20" height="20" fill="white" transform="translate(4 4)"/>
</clipPath>
</defs>
</svg>
